<svg xmlns="http://www.w3.org/2000/svg" xmlns:xlink="http://www.w3.org/1999/xlink" width="2000" height="2008.276"><defs><linearGradient id="a"><stop offset="0" stop-color="#070135"/><stop offset="1" stop-color="#612d50"/></linearGradient><linearGradient x1="314.624" y1="547.206" x2="427.377" y2="432.484" id="b" xlink:href="#a" gradientUnits="userSpaceOnUse" gradientTransform="translate(-52)"/></defs><g transform="translate(-3987.602 -6644.883) scale(15.62304)"><rect width="128.016" height="128.546" ry="20.68" x="255.239" y="425.326" fill="url(#b)"/><g style="text-align:center;line-height:100%;-inkscape-font-specification:Sans"><path d="M320.213 480.665c3.27 0 5.749-.71 7.437-2.133 1.689-1.422 2.533-3.52 2.533-6.294 0-2.737-.844-4.817-2.533-6.24-1.688-1.457-4.167-2.186-7.437-2.186h-11.478v16.853h11.478m.7 34.827c4.168 0 7.294-.87 9.378-2.613 2.12-1.742 3.18-4.373 3.18-7.893 0-3.45-1.043-6.027-3.126-7.734-2.084-1.742-5.228-2.613-9.431-2.613h-12.18v20.853h12.18m19.293-28.64c4.455 1.28 7.904 3.644 10.347 7.093 2.443 3.45 3.664 7.68 3.664 12.694 0 7.68-2.623 13.405-7.868 17.174-5.245 3.768-13.221 5.653-23.927 5.653h-34.436v-79.628h31.149c11.173 0 19.256 1.671 24.25 5.013 5.03 3.343 7.545 8.694 7.545 16.054 0 3.876-.916 7.182-2.749 9.92-1.832 2.702-4.49 4.711-7.975 6.027" style="line-height:100%;-inkscape-font-specification:Sans Bold" font-weight="700" font-size="109.797" letter-spacing="0" word-spacing="0" text-anchor="middle" fill="#fff" font-family="Sans"/></g></g></svg>