<svg xmlns="http://www.w3.org/2000/svg" width="64" height="64" viewBox="0 0 64 64"><path data-color="color-2" data-stroke="none" fill="#56bc43" d="M26.8 50.2c-.4 0-.8 0-1.2-.1v-1.6c.3.1.6.1.9.1.4 0 .7-.1.9-.4s.3-.7.3-1.3v-8.7h2v8.7c0 1.1-.2 1.9-.7 2.5s-1.2.8-2.2.8zM37.8 44.9c0 .8-.3 1.5-.9 2-.6.5-1.4.7-2.5.7-1 0-1.9-.2-2.6-.6v-1.8c.6.3 1.2.5 1.6.6.4.1.8.2 1.2.2.4 0 .8-.1 1-.2.2-.2.3-.4.3-.7 0-.2-.1-.3-.2-.5s-.3-.3-.4-.4l-1.2-.6c-.6-.3-1-.5-1.3-.8s-.5-.5-.7-.9c-.2-.3-.3-.7-.3-1.1 0-.8.3-1.5.8-1.9.6-.5 1.3-.7 2.3-.7.5 0 .9.1 1.4.2.4.1.9.3 1.4.5l-.6 1.5c-.5-.2-.9-.3-1.2-.4-.3-.1-.6-.1-1-.1s-.7.1-.9.3-.3.4-.3.7c0 .2 0 .3.1.5s.2.3.4.4c.2.1.6.3 1.2.7.9.4 1.5.8 1.8 1.2s.6.6.6 1.2z"/><path data-cap="butt" fill="none" stroke="#2c3f65" stroke-miterlimit="10" d="M40.5 2.5v16h16"/><path fill="none" stroke="#2c3f65" stroke-linecap="square" stroke-miterlimit="10" d="M56.5 32.5v-14l-16-16h-32v30M8.5 53.5v9h48v-9"/><path data-cap="butt" fill="none" stroke="#2c3f65" stroke-miterlimit="10" d="M61.5 32.5h-58M8.5 27.5l-5 5v21h58v-21l-5-5"/></svg>