<svg xmlns="http://www.w3.org/2000/svg" width="64" height="64" viewBox="0 0 64 64"><g fill="none" stroke-miterlimit="10"><path data-cap="butt" data-color="color-2" stroke="#56bc43" d="M39.8 27.8l16.7 16.7c3.3 3.3 3.3 8.7 0 12-3.3 3.3-8.7 3.3-12 0L28.6 40.6M28.9 24.9l-8.4-8.4V12L12 3.5 3.5 12l8.5 8.5h4.5l8.2 8.2"/><path data-color="color-2" stroke="#56bc43" stroke-linecap="square" d="M40.5 40.5l8 8"/><path data-cap="butt" stroke="#2c3f65" d="M44.4 22.7L14.5 56.5l-10-10 33.8-29.9"/><path stroke="#2c3f65" stroke-linecap="square" d="M57.9 20.1l-2.1 2.1-4-4 2.1-2.1L43.6 5.8c-4.5-4.4-11.7-4.4-16.1 0l18.3 18.3 2.4-2.4 4 4-2.4 2.4 3.5 3.5 8-8-3.4-3.5z"/></g></svg>