<svg xmlns="http://www.w3.org/2000/svg" width="64" height="64" viewBox="0 0 64 64"><g fill="none" stroke-linecap="square" stroke-miterlimit="10"><path data-color="color-2" stroke="#56bc43" d="M8.5 48.5h-6v-40h32M56.5 8.5h6v40h-40M22.5 60.5h20"/><path stroke="#2c3f65" d="M55.5 32.5h-20c-.6 0-1-.4-1-1v-28c0-.6.4-1 1-1h20c.6 0 1 .4 1 1v28c0 .6-.4 1-1 1zM44.5 26.5h2M21.5 54.5h-12c-.6 0-1-.4-1-1v-22c0-.6.4-1 1-1h12c.6 0 1 .4 1 1v22c0 .6-.4 1-1 1zM14.5 48.5h2"/><path data-color="color-2" stroke="#56bc43" d="M28.5 56.5h8v4h-8z"/></g></svg>