<svg xmlns="http://www.w3.org/2000/svg" width="64" height="64" viewBox="0 0 64 64"><g transform="translate(.5 .5)" fill="none" stroke-linecap="square" stroke-miterlimit="10"><path stroke="#2c3f65" d="M8 37V9a4 4 0 0 1 4-4h40a4 4 0 0 1 4 4v19M30 11h4M30 43H2a8 8 0 0 0 8 8h20"/><circle data-color="color-2" stroke="#56bc43" cx="49" cy="47" r="3"/><path data-color="color-2" stroke="#56bc43" d="M58 47c0-.44-.042-.87-.103-1.293l3.362-3.475-2-3.464-4.686 1.173a8.975 8.975 0 0 0-2.246-1.298L51 34h-4l-1.326 4.643a8.975 8.975 0 0 0-2.246 1.298l-4.686-1.173-2 3.464 3.362 3.475A8.891 8.891 0 0 0 40 47c0 .44.042.87.103 1.293l-3.362 3.475 2 3.464 4.686-1.173a8.975 8.975 0 0 0 2.246 1.298L47 60h4l1.326-4.643a8.975 8.975 0 0 0 2.246-1.298l4.686 1.173 2-3.464-3.362-3.475C57.958 47.87 58 47.44 58 47z"/></g></svg>