<svg xmlns="http://www.w3.org/2000/svg" width="120" height="120" viewBox="0 0 64 64"><g fill="none" stroke-width="2" stroke-miterlimit="10"><path data-cap="butt" data-color="color-2" stroke="#52c03b" d="M2 34h8M10 10l6.6 6.6M54 10l-6.6 6.6M8 60l7.3-7.3M56 60l-7.3-7.3M54 34h8M24.8 6.8L20 2M39.2 6.8L44 2"/><path data-cap="butt" stroke="#2c3f67" d="M42 12c7.1 4.4 12 13.3 12 23.6C54 50.2 44.2 62 32 62S10 50.2 10 35.6c0-10.3 4.9-19.2 12-23.5M32 16v46"/><circle data-color="color-2" stroke="#52c03b" stroke-linecap="square" cx="22" cy="26" r="4"/><circle data-color="color-2" stroke="#52c03b" stroke-linecap="square" cx="42" cy="26" r="4"/><circle data-color="color-2" stroke="#52c03b" stroke-linecap="square" cx="21" cy="41" r="5"/><circle data-color="color-2" stroke="#52c03b" stroke-linecap="square" cx="43" cy="41" r="5"/><path stroke="#2c3f67" stroke-linecap="square" d="M32 4c-5.2 0-9.4 3.7-10.1 8.4 0 0 5.1 3.7 10.1 3.7s10.1-3.6 10.1-3.7C41.4 7.7 37.2 4 32 4z"/></g></svg>