<svg xmlns="http://www.w3.org/2000/svg" width="24" height="24" viewBox="0 0 24 24"><g fill="none" stroke="#ccc" stroke-miterlimit="10"><path data-cap="butt" data-color="color-2" d="M8.299 17.101C9.592 19.11 12.326 20.5 15.5 20.5c.59 0 1.163-.051 1.716-.142L21.5 22.5v-4.04c1.241-1.057 2-2.44 2-3.96 0-1.552-.792-2.961-2.081-4.027"/><path stroke-linecap="square" d="M11.5 1.5c-5.523 0-10 3.582-10 8 0 1.797.75 3.45 2 4.785V19.5l4.833-2.416c.996.266 2.059.416 3.167.416 5.523 0 10-3.582 10-8s-4.477-8-10-8z"/></g></svg>