<svg xmlns="http://www.w3.org/2000/svg" width="24" height="24" viewBox="0 0 24 24"><g transform="translate(.5 .5)" fill="none" stroke-miterlimit="10"><path data-cap="butt" stroke="#2c3f68" d="M12 17.3c-.7.4-1.8.7-3 .7-2.2 0-4-.9-4-2 0-.6.5-1.1 1.4-1.5"/><path data-cap="butt" stroke="#2c3f68" d="M12 14.3c-.7.4-1.8.7-3 .7-2.2 0-4-.9-4-2 0-.6.5-1.1 1.3-1.5"/><path data-cap="butt" stroke="#2c3f68" d="M12 11.3c-.7.4-1.8.7-3 .7-2.2 0-4-.9-4-2 0-.6.5-1.1 1.4-1.5M11.6 5.5c.9.4 1.4.9 1.4 1.5 0 1.1-1.8 2-4 2s-4-.9-4-2c0-.6.5-1.1 1.4-1.5"/><ellipse stroke="#2c3f68" stroke-linecap="square" cx="9" cy="4" rx="4" ry="2"/><path data-cap="butt" data-color="color-2" stroke="#52c03b" d="M17.6 17.5c.8.4 1.4.9 1.4 1.5 0 1.1-1.8 2-4 2s-4-.9-4-2c0-.6.5-1.1 1.4-1.5"/><path data-cap="butt" data-color="color-2" stroke="#52c03b" d="M17.7 14.5c.8.4 1.3.9 1.3 1.5 0 1.1-1.8 2-4 2s-4-.9-4-2c0-.6.5-1.1 1.4-1.5"/><path data-cap="butt" data-color="color-2" stroke="#52c03b" d="M17.6 11.5c.8.4 1.4.9 1.4 1.5 0 1.1-1.8 2-4 2s-4-.9-4-2c0-.6.5-1.1 1.4-1.5"/><ellipse data-color="color-2" stroke="#52c03b" stroke-linecap="square" cx="15" cy="10" rx="4" ry="2"/></g></svg>