<svg class="nc-icon colored" xmlns="http://www.w3.org/2000/svg" width="48" height="48" viewBox="0 0 48 48"><path fill="#39527b" d="M34 31c0-5.671-4.25-7.465-8-8.531V12.065c2 .31 3.596 1.969 3.934 4.094.077.484.49.841.98.841h2.02c.598 0 1.07-.525 1-1.12-.506-4.21-3.824-7.52-7.934-7.848V5a1 1 0 0 0-1-1h-2a1 1 0 0 0-1 1v3.035c-4.468.356-8 4.236-8 8.965 0 5.671 4.25 7.465 8 8.531v10.404c-2-.31-3.596-1.969-3.934-4.094a.993.993 0 0 0-.98-.841h-2.02c-.598 0-1.07.525-1 1.12.506 4.21 3.824 7.52 7.934 7.848V43a1 1 0 0 0 1 1h2a1 1 0 0 0 1-1v-3.035c4.468-.356 8-4.236 8-8.965zM18 17c0-2.512 1.744-4.578 4-4.928v9.273c-2.806-.918-4-1.92-4-4.345zm8 18.928v-9.273c2.806.918 4 1.92 4 4.345 0 2.512-1.744 4.578-4 4.928z"/></svg>