<svg class="nc-icon colored" xmlns="http://www.w3.org/2000/svg" width="48" height="48" viewBox="0 0 48 48"><path fill="#60c84c" d="M39.88 33.955a.132.132 0 0 0-.005-.012L31 14l3.949-11.684A1 1 0 0 0 34 1H14a.999.999 0 0 0-.949 1.316L17 14 8.12 33.955a9.357 9.357 0 0 0 .813 8.842A9.358 9.358 0 0 0 16.755 47h14.49c3.156 0 6.08-1.57 7.822-4.203a9.357 9.357 0 0 0 .814-8.842z"/><path fill="#fff" d="M24 15a1 1 0 0 1-1-1V8a1 1 0 0 1 2 0v6a1 1 0 0 1-1 1zM24.243 30.03c-1.813-.453-2.285-.71-2.24-1.644.037-.782.714-1.386 1.497-1.386h1c.842 0 1.472.692 1.5 1.534a1 1 0 0 0 2-.034c0-1.758-1.308-3.204-3-3.45V23a1 1 0 1 0-2 0v2.05c-1.692.246-3 1.692-3 3.45 0 2.53 2.261 3.096 3.757 3.47 1.813.453 2.285.71 2.24 1.644C25.96 34.396 25.283 35 24.5 35h-1c-.842 0-1.472-.692-1.5-1.534a1 1 0 0 0-2 .034c0 1.758 1.308 3.204 3 3.45V39a1 1 0 0 0 2 0v-2.05c1.692-.246 3-1.692 3-3.45 0-2.53-2.261-3.096-3.757-3.47z"/><path fill="#fff" d="M31 15H17a1 1 0 0 1 0-2h14a1 1 0 0 1 0 2z"/></svg>