<svg class="nc-icon colored" xmlns="http://www.w3.org/2000/svg" width="48" height="48" viewBox="0 0 48 48"><path fill="#60c84c" d="M32 1c-4.333 0-6.789 3.595-8 6.18C22.789 4.595 20.333 1 16 1c-2.757 0-5 2.243-5 5s2.243 5 5 5h16c2.757 0 5-2.243 5-5s-2.243-5-5-5zM16 9c-1.654 0-3-1.346-3-3s1.346-3 3-3c3.745 0 5.786 3.924 6.603 6H16zm16 0h-6.606C26.206 6.925 28.24 3 32 3c1.654 0 3 1.346 3 3s-1.346 3-3 3z"/><path fill="#39527b" d="M43 15H5v30a2 2 0 0 0 2 2h34a2 2 0 0 0 2-2V15z"/><path fill="#436090" d="M45 9H3a2 2 0 0 0-2 2v6a2 2 0 0 0 2 2h42a2 2 0 0 0 2-2v-6a2 2 0 0 0-2-2z"/><path fill="#60c84c" d="M19 9h10v10H19zM19 19h10v28H19z"/></svg>