<svg class="nc-icon colored" xmlns="http://www.w3.org/2000/svg" width="48" height="48" viewBox="0 0 48 48"><path fill="#60c84c" d="M32 1c-8.284 0-15 6.716-15 15 0 8.95 11.358 20.497 14.307 23.344a.994.994 0 0 0 1.386 0C35.642 36.497 47 24.949 47 16c0-8.284-6.716-15-15-15z"/><path fill="#39527b" stroke="#fff" d="M18 1.112c-9.389 0-17 7.611-17 17 0 10.143 12.873 23.23 16.215 26.457.44.425 1.13.425 1.57 0C22.127 41.342 35 28.255 35 18.112c0-9.389-7.611-17-17-17z"/><circle fill="#FFF" cx="18" cy="18" r="6"/></svg>