<svg class="nc-icon colored" xmlns="http://www.w3.org/2000/svg" width="48" height="48" viewBox="0 0 48 48"><path fill="#60c84c" d="M44 27H4l-3-4 4-4h38l4 4z"/><path fill="#39527b" d="M41 47H7a2 2 0 0 1-2-2V3a2 2 0 0 1 2-2h24l12 12v32a2 2 0 0 1-2 2z"/><path fill="#60c84c" d="M31 1v10a2 2 0 0 0 2 2h10L31 1zM45 41H3a2 2 0 0 1-2-2V23h46v16a2 2 0 0 1-2 2z"/><path fill="#FFF" d="M23.758 36l-.387-1.472H20.82L20.423 36h-2.331l2.562-7.885h2.83L26.078 36h-2.32zm-.826-3.212l-.339-1.289a42.226 42.226 0 0 1-.287-1.112c-.113-.454-.188-.78-.224-.977-.031.182-.096.482-.19.902a93.441 93.441 0 0 1-.631 2.476h1.671zM26.928 36v-7.853h2.132V36h-2.132z"/></svg>