<svg xmlns="http://www.w3.org/2000/svg" width="20" height="20" viewBox="0 0 24 24"><g fill="none" stroke-width="2" stroke-miterlimit="10"><path data-cap="butt" stroke="#2c3f68" d="M11 13c-2.824 0-5.329.638-6.975 1.193A2.99 2.99 0 0 0 2 17.032V21h10"/><path stroke="#2c3f68" stroke-linecap="square" d="M11 13c-2.761 0-5-3.239-5-6V6a5 5 0 0 1 10 0v1c0 2.761-2.239 6-5 6z"/><path data-color="color-2" stroke="#46b72e" stroke-linecap="square" d="M22.361 15.631a2.199 2.199 0 0 0-3.361.333 2.199 2.199 0 0 0-3.361-.333 2.137 2.137 0 0 0 0 3.048L19 22l3.361-3.321a2.137 2.137 0 0 0 0-3.048z"/></g></svg>